<svg width="2000" height="2000" viewBox="0 0 2000 2000" fill="none" xmlns="http://www.w3.org/2000/svg">
<rect width="2000" height="2000" rx="180" fill="black"/>
<rect x="50" y="50" width="1900" height="1900" rx="140" fill="#00FFFF"/>
<rect x="713" y="597" width="210" height="680" fill="black"/>
<rect x="713" y="597" width="210" height="680" fill="black"/>
<circle cx="818" cy="317" r="105" fill="#F81A15"/>
<circle cx="818" cy="597" r="105" fill="black"/>
<circle cx="818" cy="1277" r="105" fill="black"/>
<rect x="1078" y="597" width="210" height="680" fill="black"/>
<rect x="1078" y="597" width="210" height="680" fill="black"/>
<circle cx="1183" cy="317" r="105" fill="#F81A15"/>
<circle cx="1183" cy="597" r="105" fill="black"/>
<circle cx="1183" cy="1277" r="105" fill="black"/>
<path d="M318.526 1742V1556.55H369.96V1742H318.526ZM344.364 1532.64C336.717 1532.64 330.157 1530.1 324.683 1525.03C319.29 1519.88 316.594 1513.72 316.594 1506.56C316.594 1499.48 319.29 1493.4 324.683 1488.33C330.157 1483.18 336.717 1480.6 344.364 1480.6C352.01 1480.6 358.53 1483.18 363.923 1488.33C369.397 1493.4 372.134 1499.48 372.134 1506.56C372.134 1513.72 369.397 1519.88 363.923 1525.03C358.53 1530.1 352.01 1532.64 344.364 1532.64ZM411.162 1742V1556.55H462.597V1742H411.162ZM437 1532.64C429.354 1532.64 422.793 1530.1 417.32 1525.03C411.927 1519.88 409.23 1513.72 409.23 1506.56C409.23 1499.48 411.927 1493.4 417.32 1488.33C422.793 1483.18 429.354 1480.6 437 1480.6C444.647 1480.6 451.167 1483.18 456.56 1488.33C462.034 1493.4 464.77 1499.48 464.77 1506.56C464.77 1513.72 462.034 1519.88 456.56 1525.03C451.167 1530.1 444.647 1532.64 437 1532.64ZM503.799 1742V1556.55H552.819V1589.27H554.992C558.856 1578.4 565.295 1569.83 574.31 1563.55C583.326 1557.27 594.112 1554.13 606.668 1554.13C619.386 1554.13 630.212 1557.31 639.147 1563.67C648.082 1569.95 654.038 1578.48 657.016 1589.27H658.948C662.731 1578.64 669.573 1570.15 679.474 1563.79C689.455 1557.35 701.247 1554.13 714.85 1554.13C732.156 1554.13 746.202 1559.64 756.988 1570.67C767.854 1581.62 773.288 1597.15 773.288 1617.28V1742H721.974V1627.42C721.974 1617.12 719.237 1609.39 713.763 1604.24C708.29 1599.09 701.448 1596.51 693.238 1596.51C683.901 1596.51 676.616 1599.49 671.384 1605.44C666.152 1611.32 663.536 1619.09 663.536 1628.75V1742H613.671V1626.33C613.671 1617.24 611.055 1609.99 605.823 1604.6C600.672 1599.21 593.87 1596.51 585.418 1596.51C579.703 1596.51 574.552 1597.96 569.964 1600.86C565.456 1603.67 561.874 1607.66 559.218 1612.81C556.562 1617.88 555.234 1623.84 555.234 1630.68V1742H503.799ZM813.916 1742V1556.55H862.936V1589.27H865.109C868.973 1578.4 875.412 1569.83 884.428 1563.55C893.443 1557.27 904.229 1554.13 916.786 1554.13C929.503 1554.13 940.33 1557.31 949.264 1563.67C958.199 1569.95 964.155 1578.48 967.134 1589.27H969.065C972.848 1578.64 979.69 1570.15 989.591 1563.79C999.572 1557.35 1011.36 1554.13 1024.97 1554.13C1042.27 1554.13 1056.32 1559.64 1067.11 1570.67C1077.97 1581.62 1083.4 1597.15 1083.4 1617.28V1742H1032.09V1627.42C1032.09 1617.12 1029.35 1609.39 1023.88 1604.24C1018.41 1599.09 1011.57 1596.51 1003.36 1596.51C994.018 1596.51 986.733 1599.49 981.501 1605.44C976.269 1611.32 973.653 1619.09 973.653 1628.75V1742H923.788V1626.33C923.788 1617.24 921.172 1609.99 915.94 1604.6C910.789 1599.21 903.987 1596.51 895.536 1596.51C889.821 1596.51 884.669 1597.96 880.081 1600.86C875.573 1603.67 871.991 1607.66 869.335 1612.81C866.679 1617.88 865.351 1623.84 865.351 1630.68V1742H813.916ZM1176.92 1745.5C1165.08 1745.5 1154.54 1743.45 1145.28 1739.34C1136.03 1735.16 1128.7 1729 1123.31 1720.87C1118 1712.66 1115.34 1702.44 1115.34 1690.2C1115.34 1679.9 1117.23 1671.25 1121.01 1664.24C1124.8 1657.24 1129.95 1651.61 1136.47 1647.34C1142.99 1643.07 1150.39 1639.86 1158.69 1637.68C1167.06 1635.51 1175.83 1633.98 1185.01 1633.09C1195.79 1631.97 1204.49 1630.92 1211.09 1629.95C1217.69 1628.91 1222.48 1627.38 1225.45 1625.37C1228.43 1623.35 1229.92 1620.38 1229.92 1616.43V1615.71C1229.92 1608.06 1227.51 1602.14 1222.68 1597.96C1217.93 1593.77 1211.17 1591.68 1202.39 1591.68C1193.14 1591.68 1185.77 1593.73 1180.3 1597.84C1174.82 1601.86 1171.2 1606.93 1169.43 1613.05L1121.86 1609.19C1124.27 1597.92 1129.02 1588.18 1136.11 1579.97C1143.19 1571.68 1152.33 1565.32 1163.51 1560.89C1174.78 1556.38 1187.82 1554.13 1202.63 1554.13C1212.94 1554.13 1222.8 1555.34 1232.22 1557.75C1241.71 1560.17 1250.12 1563.91 1257.45 1568.98C1264.85 1574.05 1270.69 1580.57 1274.96 1588.54C1279.22 1596.43 1281.36 1605.89 1281.36 1616.91V1742H1232.58V1716.28H1231.13C1228.15 1722.08 1224.17 1727.19 1219.18 1731.62C1214.18 1735.96 1208.19 1739.38 1201.19 1741.88C1194.18 1744.29 1186.09 1745.5 1176.92 1745.5ZM1191.65 1710C1199.21 1710 1205.89 1708.52 1211.69 1705.54C1217.49 1702.48 1222.03 1698.37 1225.33 1693.22C1228.63 1688.07 1230.28 1682.23 1230.28 1675.71V1656.03C1228.67 1657.08 1226.46 1658.05 1223.64 1658.93C1220.91 1659.74 1217.81 1660.5 1214.35 1661.23C1210.88 1661.87 1207.42 1662.47 1203.96 1663.04C1200.5 1663.52 1197.36 1663.96 1194.54 1664.37C1188.51 1665.25 1183.24 1666.66 1178.73 1668.59C1174.22 1670.52 1170.72 1673.14 1168.22 1676.44C1165.73 1679.66 1164.48 1683.68 1164.48 1688.51C1164.48 1695.52 1167.02 1700.87 1172.09 1704.57C1177.24 1708.19 1183.76 1710 1191.65 1710Z" fill="black"/>
<path d="M1322.23 1742V1494.73H1373.66V1587.7H1375.23C1377.48 1582.71 1380.74 1577.63 1385.01 1572.48C1389.36 1567.25 1394.99 1562.9 1401.91 1559.44C1408.92 1555.9 1417.61 1554.13 1427.99 1554.13C1441.52 1554.13 1453.99 1557.67 1465.42 1564.76C1476.85 1571.76 1485.99 1582.34 1492.83 1596.51C1499.67 1610.6 1503.09 1628.26 1503.09 1649.51C1503.09 1670.2 1499.75 1687.67 1493.07 1701.91C1486.47 1716.08 1477.46 1726.83 1466.03 1734.15C1454.68 1741.4 1441.96 1745.02 1427.87 1745.02C1417.89 1745.02 1409.4 1743.37 1402.4 1740.07C1395.47 1736.77 1389.8 1732.62 1385.37 1727.63C1380.95 1722.56 1377.56 1717.45 1375.23 1712.3H1372.94V1742H1322.23ZM1372.57 1649.27C1372.57 1660.3 1374.1 1669.92 1377.16 1678.13C1380.22 1686.34 1384.65 1692.74 1390.44 1697.33C1396.24 1701.83 1403.28 1704.09 1411.57 1704.09C1419.94 1704.09 1427.03 1701.79 1432.82 1697.21C1438.62 1692.54 1443 1686.1 1445.98 1677.89C1449.04 1669.6 1450.57 1660.06 1450.57 1649.27C1450.57 1638.57 1449.08 1629.15 1446.1 1621.02C1443.13 1612.89 1438.74 1606.53 1432.94 1601.94C1427.15 1597.36 1420.02 1595.06 1411.57 1595.06C1403.2 1595.06 1396.12 1597.27 1390.32 1601.7C1384.61 1606.13 1380.22 1612.41 1377.16 1620.54C1374.1 1628.67 1372.57 1638.25 1372.57 1649.27ZM1621.93 1745.62C1602.85 1745.62 1586.43 1741.76 1572.67 1734.03C1558.98 1726.22 1548.44 1715.2 1541.03 1700.95C1533.63 1686.62 1529.93 1669.68 1529.93 1650.12C1529.93 1631.04 1533.63 1614.3 1541.03 1599.89C1548.44 1585.48 1558.86 1574.25 1572.31 1566.2C1585.83 1558.16 1601.69 1554.13 1619.88 1554.13C1632.11 1554.13 1643.5 1556.1 1654.05 1560.05C1664.67 1563.91 1673.93 1569.75 1681.82 1577.55C1689.78 1585.36 1695.98 1595.18 1700.41 1607.01C1704.84 1618.77 1707.05 1632.53 1707.05 1648.31V1662.43H1550.45V1630.56H1658.63C1658.63 1623.15 1657.02 1616.59 1653.8 1610.88C1650.58 1605.16 1646.12 1600.7 1640.4 1597.48C1634.77 1594.18 1628.21 1592.53 1620.72 1592.53C1612.91 1592.53 1605.99 1594.34 1599.95 1597.96C1594 1601.5 1589.33 1606.29 1585.95 1612.33C1582.57 1618.28 1580.84 1624.92 1580.76 1632.25V1662.55C1580.76 1671.73 1582.45 1679.66 1585.83 1686.34C1589.29 1693.02 1594.16 1698.17 1600.44 1701.79C1606.72 1705.42 1614.16 1707.23 1622.77 1707.23C1628.49 1707.23 1633.72 1706.42 1638.47 1704.81C1643.22 1703.2 1647.28 1700.79 1650.67 1697.57C1654.05 1694.35 1656.62 1690.4 1658.39 1685.74L1705.96 1688.88C1703.55 1700.3 1698.6 1710.29 1691.11 1718.82C1683.71 1727.27 1674.13 1733.87 1662.38 1738.62C1650.71 1743.29 1637.22 1745.62 1621.93 1745.62Z" fill="#F81A15"/>
</svg>
